<svg width="148" height="148" viewBox="0 0 148 148" fill="none" xmlns="http://www.w3.org/2000/svg">
<rect x="5.5" y="5.5" width="137" height="137" rx="13.5" fill="#3D98FF" fill-opacity="0.26"/>
<path d="M74 107.714H80.48C83.7937 107.714 86.48 105.028 86.48 101.714L86.48 100.441L86.48 97.4081C86.48 95.0665 88.3783 93.1681 90.72 93.1681V93.1681C93.0617 93.1681 94.96 95.0665 94.96 97.4081L94.96 123.76C94.96 126.102 96.8583 128 99.2 128V128C101.542 128 103.44 126.102 103.44 123.76V84.24C103.44 81.8983 105.338 80 107.68 80V80C110.022 80 111.92 81.8983 111.92 84.24V111.44C111.92 113.782 113.818 115.68 116.16 115.68V115.68C118.502 115.68 120.4 113.782 120.4 111.44V107.66C120.4 104.346 123.086 101.66 126.4 101.66H131" stroke="#3D98FF" stroke-width="5" stroke-linecap="round" stroke-linejoin="round"/>
<rect x="20" y="20" width="45" height="45" rx="6" fill="#3D98FF"/>
<rect x="20" y="83" width="45" height="45" rx="6" fill="#3D98FF"/>
<rect x="83" y="20" width="45" height="45" rx="6" fill="#3D98FF"/>
<rect x="5.5" y="5.5" width="137" height="137" rx="13.5" stroke="#3D98FF" stroke-width="11"/>
</svg>
