<svg width="148" height="148" viewBox="0 0 148 148" fill="none" xmlns="http://www.w3.org/2000/svg">
<rect x="5.5" y="5.5" width="137" height="137" rx="13.5" fill="#E37B05" fill-opacity="0.26"/>
<path d="M72 98.2862H78.48C81.7937 98.2862 84.48 100.972 84.48 104.286L84.48 105.559L84.48 108.592C84.48 110.934 86.3783 112.832 88.72 112.832V112.832C91.0617 112.832 92.96 110.934 92.96 108.592L92.96 82.24C92.96 79.8983 94.8583 78 97.2 78V78C99.5417 78 101.44 79.8983 101.44 82.24V121.76C101.44 124.102 103.338 126 105.68 126V126C108.022 126 109.92 124.102 109.92 121.76V94.5598C109.92 92.2181 111.818 90.3198 114.16 90.3198V90.3198C116.502 90.3198 118.4 92.2181 118.4 94.5598V98.3403C118.4 101.654 121.086 104.34 124.4 104.34H129" stroke="#E37B05" stroke-width="5" stroke-linecap="round" stroke-linejoin="round"/>
<rect x="20" y="20" width="45" height="45" rx="6" fill="#E37B05"/>
<rect x="20" y="83" width="45" height="45" rx="6" fill="#E37B05"/>
<rect x="83" y="20" width="45" height="45" rx="6" fill="#E37B05"/>
<rect x="5.5" y="5.5" width="137" height="137" rx="13.5" stroke="#E37B05" stroke-width="11"/>
</svg>
